<svg width="170" height="170" viewBox="0 0 170 170" fill="none" xmlns="http://www.w3.org/2000/svg">
<g filter="url(#filter0_i_32_2)">
<g clip-path="url(#clip0_32_2)">
<rect width="170" height="170" rx="37" fill="#161618"/>
<g filter="url(#filter1_di_32_2)">
<path d="M136.443 66.9658H148L147.991 129.134C147.991 133.034 147.248 136.762 145.76 140.316C144.361 143.87 142.348 146.948 139.724 149.548C137.012 152.235 133.906 154.316 130.407 155.789C126.995 157.263 123.364 158 119.515 158C114.528 158 109.891 156.743 105.604 154.229C101.405 151.715 97.7307 148.074 94.5812 143.307L104.817 137.455C106.654 140.316 108.841 142.483 111.378 143.957C113.916 145.517 116.628 146.297 119.515 146.297C124.151 146.297 128.176 144.607 131.588 141.226C133.162 139.666 134.344 137.846 135.131 135.765C136.006 133.685 136.443 131.474 136.443 129.134V124.583C134.431 126.663 131.894 128.353 128.832 129.654C125.77 130.867 122.664 131.474 119.515 131.474C115.665 131.474 112.035 130.781 108.623 129.394C105.211 127.92 102.192 125.883 99.5679 123.282C96.8559 120.682 94.7562 117.691 93.2689 114.31C91.7817 110.843 91.038 107.202 91.038 103.388V38.071L65.9611 73.962H57.3489L32.3986 38.071V129.987H21V20H33.5385L61.655 60.2832L89.7715 20H102.437C102.437 20 102.602 101.037 102.588 102.861C102.605 102.533 103.397 108.623 104.817 111.19C106.392 113.79 108.448 115.871 110.985 117.431C113.609 118.991 116.453 119.771 119.515 119.771C122.577 119.771 125.42 119.035 128.045 117.561C130.669 116.001 132.725 113.92 134.212 111.32C135.7 108.632 136.443 105.728 136.443 102.608V66.9658Z" fill="#D9D9D9"/>
<path d="M102.588 102.882C102.58 102.342 103.375 108.583 104.817 111.19C106.392 113.79 108.448 115.871 110.985 117.431C113.609 118.991 116.453 119.771 119.515 119.771C122.577 119.771 125.42 119.035 128.045 117.561C130.669 116.001 132.725 113.92 134.212 111.32C135.7 108.632 136.443 105.728 136.443 102.608V66.9658H148L147.991 129.134C147.991 133.034 147.248 136.762 145.76 140.316C144.361 143.87 142.348 146.948 139.724 149.548C137.012 152.235 133.906 154.316 130.407 155.789C126.995 157.263 123.364 158 119.515 158C114.528 158 109.891 156.743 105.604 154.229C101.405 151.715 97.7307 148.074 94.5812 143.307L104.817 137.455C106.654 140.316 108.841 142.483 111.378 143.957C113.916 145.517 116.628 146.297 119.515 146.297C124.151 146.297 128.176 144.607 131.588 141.226C133.162 139.666 134.344 137.846 135.131 135.765C136.006 133.685 136.443 131.474 136.443 129.134V124.583C134.431 126.663 131.894 128.353 128.832 129.654C125.77 130.867 122.664 131.474 119.515 131.474C115.665 131.474 112.035 130.781 108.623 129.394C105.211 127.92 102.192 125.883 99.5679 123.282C96.8558 120.682 94.7562 117.691 93.2689 114.31C91.7817 110.843 91.038 107.202 91.038 103.388C91.038 99.5737 91.038 38.071 91.038 38.071L65.9611 73.962H57.3489L32.3986 38.071V129.987H21V20H33.5385L61.655 60.2832L89.7715 20H102.437C102.437 20 102.604 101.784 102.588 102.882ZM102.588 102.882C102.588 102.914 102.587 102.869 102.587 102.742M102.588 102.882C102.587 102.835 102.587 102.788 102.587 102.742M102.587 102.742C102.586 102.697 102.586 102.652 102.586 102.608C102.586 102.659 102.586 102.704 102.587 102.742Z" stroke="white" stroke-width="2"/>
</g>
</g>
</g>
<defs>
<filter id="filter0_i_32_2" x="0" y="0" width="174" height="174" filterUnits="userSpaceOnUse" color-interpolation-filters="sRGB">
<feFlood flood-opacity="0" result="BackgroundImageFix"/>
<feBlend mode="normal" in="SourceGraphic" in2="BackgroundImageFix" result="shape"/>
<feColorMatrix in="SourceAlpha" type="matrix" values="0 0 0 0 0 0 0 0 0 0 0 0 0 0 0 0 0 0 127 0" result="hardAlpha"/>
<feOffset dx="4" dy="4"/>
<feGaussianBlur stdDeviation="5"/>
<feComposite in2="hardAlpha" operator="arithmetic" k2="-1" k3="1"/>
<feColorMatrix type="matrix" values="0 0 0 0 0 0 0 0 0 0 0 0 0 0 0 0 0 0 0.57 0"/>
<feBlend mode="normal" in2="shape" result="effect1_innerShadow_32_2"/>
</filter>
<filter id="filter1_di_32_2" x="14" y="13" width="149" height="160" filterUnits="userSpaceOnUse" color-interpolation-filters="sRGB">
<feFlood flood-opacity="0" result="BackgroundImageFix"/>
<feColorMatrix in="SourceAlpha" type="matrix" values="0 0 0 0 0 0 0 0 0 0 0 0 0 0 0 0 0 0 127 0" result="hardAlpha"/>
<feOffset dx="4" dy="4"/>
<feGaussianBlur stdDeviation="5"/>
<feComposite in2="hardAlpha" operator="out"/>
<feColorMatrix type="matrix" values="0 0 0 0 0 0 0 0 0 0 0 0 0 0 0 0 0 0 0.59 0"/>
<feBlend mode="normal" in2="BackgroundImageFix" result="effect1_dropShadow_32_2"/>
<feBlend mode="normal" in="SourceGraphic" in2="effect1_dropShadow_32_2" result="shape"/>
<feColorMatrix in="SourceAlpha" type="matrix" values="0 0 0 0 0 0 0 0 0 0 0 0 0 0 0 0 0 0 127 0" result="hardAlpha"/>
<feOffset dx="4" dy="4"/>
<feGaussianBlur stdDeviation="5"/>
<feComposite in2="hardAlpha" operator="arithmetic" k2="-1" k3="1"/>
<feColorMatrix type="matrix" values="0 0 0 0 0 0 0 0 0 0 0 0 0 0 0 0 0 0 0.25 0"/>
<feBlend mode="normal" in2="shape" result="effect2_innerShadow_32_2"/>
</filter>
<clipPath id="clip0_32_2">
<rect width="170" height="170" rx="37" fill="white"/>
</clipPath>
</defs>
</svg>
